Russolo-10ptExtraLight.ufo
<glyph name="plus" format="2">
  <advance width="1081"/>
  <unicode hex="002B"/>
  <note>
plus
</note>
  <outline>
    <contour>
      <point x="138" y="630" type="line"/>
      <point x="943" y="630" type="line"/>
      <point x="943" y="709" type="line"/>
      <point x="138" y="709" type="line"/>
    </contour>
    <contour>
      <point x="501" y="267" type="line"/>
      <point x="580" y="267" type="line"/>
      <point x="580" y="1072" type="line"/>
      <point x="501" y="1072" type="line"/>
    </contour>
  </outline>
</glyph>
<glyph name="U" format="2">
  <advance width="1423"/>
  <unicode hex="0055"/>
  <note>
U
</note>
  <anchor x="712" y="-20" name="bottom"/>
  <anchor x="825" y="0" name="ogonek"/>
  <anchor x="712" y="1430" name="top"/>
  <anchor x="1428" y="1430" name="topright"/>
  <outline>
    <contour>
      <point x="711" y="-24" type="curve" smooth="yes"/>
      <point x="999" y="-24"/>
      <point x="1292" y="219"/>
      <point x="1292" y="570" type="curve" smooth="yes"/>
      <point x="1292" y="1430" type="line"/>
      <point x="1212" y="1430" type="line"/>
      <point x="1212" y="563" type="line" smooth="yes"/>
      <point x="1212" y="260"/>
      <point x="959" y="53"/>
      <point x="711" y="53" type="curve" smooth="yes"/>
      <point x="465" y="53"/>
      <point x="214" y="260"/>
      <point x="214" y="563" type="curve" smooth="yes"/>
      <point x="214" y="1430" type="line"/>
      <point x="131" y="1430" type="line"/>
      <point x="131" y="570" type="line" smooth="yes"/>
      <point x="131" y="219"/>
      <point x="423" y="-24"/>
    </contour>
  </outline>
</glyph>
<glyph name="f" format="2">
  <advance width="646"/>
  <unicode hex="0066"/>
  <note>
f
</note>
  <anchor x="323" y="-20" name="bottom"/>
  <anchor x="323" y="1514" name="top"/>
  <outline>
    <contour>
      <point x="281" y="0" type="line"/>
      <point x="366" y="0" type="line"/>
      <point x="366" y="1115" type="line" smooth="yes"/>
      <point x="366" y="1378"/>
      <point x="381" y="1450"/>
      <point x="469" y="1450" type="curve" smooth="yes"/>
      <point x="525" y="1450"/>
      <point x="558" y="1428"/>
      <point x="558" y="1388" type="curve" smooth="yes"/>
      <point x="558" y="1371"/>
      <point x="552" y="1349"/>
      <point x="546" y="1331" type="curve"/>
      <point x="625" y="1331" type="line"/>
      <point x="630" y="1339"/>
      <point x="640" y="1367"/>
      <point x="640" y="1396" type="curve" smooth="yes"/>
      <point x="640" y="1474"/>
      <point x="558" y="1532"/>
      <point x="461" y="1532" type="curve" smooth="yes"/>
      <point x="271" y="1532"/>
      <point x="281" y="1312"/>
      <point x="281" y="1114" type="curve" smooth="yes"/>
    </contour>
    <contour>
      <point x="77" y="909" type="line"/>
      <point x="569" y="909" type="line"/>
      <point x="569" y="988" type="line"/>
      <point x="77" y="988" type="line"/>
    </contour>
  </outline>
</glyph>
<glyph name="n" format="2">
  <advance width="996"/>
  <unicode hex="006E"/>
  <note>
n
</note>
  <anchor x="498" y="0" name="bottom"/>
  <anchor x="498" y="1009" name="top"/>
  <outline>
    <contour>
      <point x="110" y="0" type="line"/>
      <point x="196" y="0" type="line"/>
      <point x="196" y="571" type="line" smooth="yes"/>
      <point x="196" y="796"/>
      <point x="321" y="935"/>
      <point x="523" y="935" type="curve" smooth="yes"/>
      <point x="723" y="935"/>
      <point x="809" y="827"/>
      <point x="809" y="580" type="curve" smooth="yes"/>
      <point x="809" y="0" type="line"/>
      <point x="895" y="0" type="line"/>
      <point x="895" y="587" type="line" smooth="yes"/>
      <point x="895" y="874"/>
      <point x="777" y="1016"/>
      <point x="536" y="1016" type="curve" smooth="yes"/>
      <point x="326" y="1016"/>
      <point x="186" y="882"/>
      <point x="170" y="661" type="curve"/>
      <point x="196" y="668" type="line"/>
      <point x="196" y="990" type="line"/>
      <point x="110" y="990" type="line"/>
    </contour>
  </outline>
</glyph>
<glyph name="r" format="2">
  <advance width="831"/>
  <unicode hex="0072"/>
  <note>
r
</note>
  <anchor x="96" y="0" name="bottom"/>
  <anchor x="486" y="1009" name="top"/>
  <outline>
    <contour>
      <point x="110" y="0" type="line"/>
      <point x="196" y="0" type="line"/>
      <point x="196" y="607" type="line" smooth="yes"/>
      <point x="196" y="804"/>
      <point x="316" y="935"/>
      <point x="491" y="935" type="curve" smooth="yes"/>
      <point x="600" y="935"/>
      <point x="676" y="901"/>
      <point x="676" y="822" type="curve" smooth="yes"/>
      <point x="676" y="801"/>
      <point x="671" y="753"/>
      <point x="654" y="720" type="curve"/>
      <point x="719" y="704" type="line"/>
      <point x="731" y="719"/>
      <point x="752" y="763"/>
      <point x="752" y="817" type="curve" smooth="yes"/>
      <point x="752" y="939"/>
      <point x="647" y="1016"/>
      <point x="506" y="1016" type="curve" smooth="yes"/>
      <point x="324" y="1016"/>
      <point x="193" y="886"/>
      <point x="168" y="677" type="curve"/>
      <point x="196" y="662" type="line"/>
      <point x="196" y="990" type="line"/>
      <point x="110" y="990" type="line"/>
    </contour>
  </outline>
</glyph>
<glyph name=".notdef" format="2">
  <advance width="1235"/>
  <unicode hex="007F"/>
  <note>
.notdef
</note>
  <outline>
    <contour>
      <point x="103" y="-354" type="line"/>
      <point x="1132" y="-354" type="line"/>
      <point x="1132" y="1410" type="line"/>
      <point x="103" y="1410" type="line"/>
    </contour>
    <contour>
      <point x="218" y="-242" type="line"/>
      <point x="218" y="1298" type="line"/>
      <point x="1018" y="1298" type="line"/>
      <point x="1018" y="-242" type="line"/>
    </contour>
  </outline>
</glyph>
<glyph name="currency" format="2">
  <advance width="1111"/>
  <unicode hex="00A4"/>
  <note>
currency
</note>
  <guideline x="895" y="423" angle="135"/>
  <guideline x="908" y="1111" angle="0"/>
  <outline>
    <contour>
      <point x="205" y="299" type="line"/>
      <point x="339" y="433" type="line"/>
      <point x="398" y="386"/>
      <point x="473" y="358"/>
      <point x="555" y="358" type="curve" smooth="yes"/>
      <point x="636" y="358"/>
      <point x="711" y="386"/>
      <point x="770" y="433" type="curve"/>
      <point x="905" y="299" type="line"/>
      <point x="962" y="355" type="line"/>
      <point x="827" y="490" type="line"/>
      <point x="874" y="549"/>
      <point x="902" y="624"/>
      <point x="902" y="705" type="curve" smooth="yes"/>
      <point x="902" y="787"/>
      <point x="874" y="862"/>
      <point x="827" y="921" type="curve"/>
      <point x="961" y="1055" type="line"/>
      <point x="904" y="1112" type="line"/>
      <point x="770" y="978" type="line"/>
      <point x="711" y="1024"/>
      <point x="636" y="1052"/>
      <point x="555" y="1052" type="curve" smooth="yes"/>
      <point x="474" y="1052"/>
      <point x="399" y="1024"/>
      <point x="340" y="978" type="curve"/>
      <point x="206" y="1111" type="line"/>
      <point x="149" y="1055" type="line"/>
      <point x="283" y="921" type="line"/>
      <point x="236" y="862"/>
      <point x="208" y="787"/>
      <point x="208" y="705" type="curve" smooth="yes"/>
      <point x="208" y="624"/>
      <point x="236" y="549"/>
      <point x="282" y="490" type="curve"/>
      <point x="149" y="356" type="line"/>
    </contour>
    <contour>
      <point x="555" y="441" type="curve" smooth="yes"/>
      <point x="409" y="441"/>
      <point x="291" y="559"/>
      <point x="291" y="705" type="curve" smooth="yes"/>
      <point x="291" y="851"/>
      <point x="409" y="969"/>
      <point x="555" y="969" type="curve" smooth="yes"/>
      <point x="701" y="969"/>
      <point x="819" y="851"/>
      <point x="819" y="705" type="curve" smooth="yes"/>
      <point x="819" y="559"/>
      <point x="701" y="441"/>
    </contour>
  </outline>
</glyph>
<glyph name="degree" format="2">
  <advance width="753"/>
  <unicode hex="00B0"/>
  <note>
degree
</note>
  <outline>
    <contour>
      <point x="374" y="976" type="curve" smooth="yes"/>
      <point x="505" y="976"/>
      <point x="609" y="1080"/>
      <point x="609" y="1208" type="curve" smooth="yes"/>
      <point x="609" y="1336"/>
      <point x="505" y="1440"/>
      <point x="377" y="1440" type="curve" smooth="yes"/>
      <point x="247" y="1440"/>
      <point x="145" y="1338"/>
      <point x="145" y="1208" type="curve" smooth="yes"/>
      <point x="145" y="1078"/>
      <point x="246" y="976"/>
    </contour>
    <contour>
      <point x="377" y="1046" type="curve" smooth="yes"/>
      <point x="287" y="1046"/>
      <point x="215" y="1118"/>
      <point x="215" y="1208" type="curve" smooth="yes"/>
      <point x="215" y="1297"/>
      <point x="287" y="1369"/>
      <point x="377" y="1369" type="curve" smooth="yes"/>
      <point x="467" y="1369"/>
      <point x="538" y="1297"/>
      <point x="538" y="1208" type="curve" smooth="yes"/>
      <point x="538" y="1118"/>
      <point x="467" y="1046"/>
    </contour>
  </outline>
</glyph>
<glyph name="AE" format="2">
  <advance width="1841"/>
  <unicode hex="00C6"/>
  <note>
AE
</note>
  <anchor x="921" y="-20" name="bottom"/>
  <anchor x="921" y="1430" name="top"/>
  <outline>
    <contour>
      <point x="105" y="0" type="line"/>
      <point x="195" y="0" type="line"/>
      <point x="1101" y="1430" type="line"/>
      <point x="1011" y="1430" type="line"/>
    </contour>
    <contour>
      <point x="452" y="444" type="line"/>
      <point x="1117" y="444" type="line"/>
      <point x="1117" y="522" type="line"/>
      <point x="452" y="522" type="line"/>
    </contour>
    <contour>
      <point x="1064" y="0" type="line"/>
      <point x="1728" y="0" type="line"/>
      <point x="1728" y="78" type="line"/>
      <point x="1106" y="78" type="line"/>
      <point x="1148" y="12" type="line"/>
      <point x="1148" y="761" type="line"/>
      <point x="1120" y="689" type="line"/>
      <point x="1728" y="689" type="line"/>
      <point x="1728" y="767" type="line"/>
      <point x="1086" y="767" type="line"/>
      <point x="1148" y="701" type="line"/>
      <point x="1148" y="1423" type="line"/>
      <point x="1007" y="1352" type="line"/>
      <point x="1728" y="1352" type="line"/>
      <point x="1728" y="1430" type="line"/>
      <point x="1064" y="1430" type="line"/>
    </contour>
  </outline>
</glyph>
<glyph name="eth" format="2">
  <advance width="1105"/>
  <unicode hex="00F0"/>
  <note>
eth
</note>
  <outline>
    <contour>
      <point x="549" y="-28" type="curve" smooth="yes"/>
      <point x="680" y="-28"/>
      <point x="790" y="18"/>
      <point x="871" y="99" type="curve" smooth="yes"/>
      <point x="964" y="191"/>
      <point x="1017" y="328"/>
      <point x="1016" y="491" type="curve" smooth="yes"/>
      <point x="1015" y="643"/>
      <point x="1000" y="847"/>
      <point x="925" y="1011" type="curve" smooth="yes"/>
      <point x="797" y="1291"/>
      <point x="494" y="1525"/>
      <point x="191" y="1587" type="curve"/>
      <point x="149" y="1526" type="line"/>
      <point x="562" y="1427"/>
      <point x="898" y="1069"/>
      <point x="908" y="717" type="curve"/>
      <point x="957" y="726" type="line"/>
      <point x="875" y="915"/>
      <point x="731" y="1014"/>
      <point x="549" y="1014" type="curve" smooth="yes"/>
      <point x="428" y="1014"/>
      <point x="327" y="972"/>
      <point x="239" y="883" type="curve" smooth="yes"/>
      <point x="148" y="792"/>
      <point x="84" y="644"/>
      <point x="84" y="482" type="curve" smooth="yes"/>
      <point x="84" y="319"/>
      <point x="151" y="181"/>
      <point x="233" y="100" type="curve" smooth="yes"/>
      <point x="321" y="13"/>
      <point x="422" y="-28"/>
    </contour>
    <contour>
      <point x="549" y="53" type="curve" smooth="yes"/>
      <point x="316" y="53"/>
      <point x="176" y="227"/>
      <point x="176" y="491" type="curve" smooth="yes"/>
      <point x="176" y="756"/>
      <point x="320" y="932"/>
      <point x="549" y="932" type="curve" smooth="yes"/>
      <point x="776" y="932"/>
      <point x="924" y="750"/>
      <point x="924" y="482" type="curve" smooth="yes"/>
      <point x="924" y="223"/>
      <point x="780" y="53"/>
    </contour>
    <contour>
      <point x="220" y="1125" type="line"/>
      <point x="303" y="1125" type="line"/>
      <point x="855" y="1639" type="line"/>
      <point x="772" y="1639" type="line"/>
    </contour>
  </outline>
</glyph>
<glyph name="Eng" format="2">
  <advance width="1529"/>
  <unicode hex="014A"/>
  <outline>
    <contour>
      <point x="1142" y="-344" type="curve" smooth="yes"/>
      <point x="1288" y="-344"/>
      <point x="1382" y="-238"/>
      <point x="1382" y="-46" type="curve" smooth="yes"/>
      <point x="1382" y="1430" type="line"/>
      <point x="1299" y="1430" type="line"/>
      <point x="1299" y="90" type="line"/>
      <point x="1316" y="96" type="line"/>
      <point x="269" y="1430" type="line"/>
      <point x="143" y="1430" type="line"/>
      <point x="143" y="0" type="line"/>
      <point x="226" y="0" type="line"/>
      <point x="226" y="1345" type="line"/>
      <point x="209" y="1339" type="line"/>
      <point x="1234" y="41" type="line" smooth="yes"/>
      <point x="1264" y="3"/>
      <point x="1296" y="-25"/>
      <point x="1296" y="-67" type="curve" smooth="yes"/>
      <point x="1296" y="-208"/>
      <point x="1238" y="-263"/>
      <point x="1147" y="-263" type="curve" smooth="yes"/>
      <point x="1059" y="-263"/>
      <point x="988" y="-211"/>
      <point x="944" y="-183" type="curve"/>
      <point x="944" y="-276" type="line"/>
      <point x="998" y="-309"/>
      <point x="1058" y="-344"/>
    </contour>
  </outline>
</glyph>
<glyph name="eng" format="2">
  <advance width="996"/>
  <unicode hex="014B"/>
  <outline>
    <contour>
      <point x="715" y="-418" type="curve" smooth="yes"/>
      <point x="906" y="-418"/>
      <point x="895" y="-197"/>
      <point x="895" y="0" type="curve" smooth="yes"/>
      <point x="895" y="587" type="line" smooth="yes"/>
      <point x="895" y="874"/>
      <point x="777" y="1016"/>
      <point x="536" y="1016" type="curve" smooth="yes"/>
      <point x="363" y="1016"/>
      <point x="238" y="925"/>
      <point x="190" y="770" type="curve"/>
      <point x="196" y="761" type="line"/>
      <point x="196" y="990" type="line"/>
      <point x="110" y="990" type="line"/>
      <point x="110" y="0" type="line"/>
      <point x="196" y="0" type="line"/>
      <point x="196" y="571" type="line" smooth="yes"/>
      <point x="196" y="796"/>
      <point x="321" y="935"/>
      <point x="523" y="935" type="curve" smooth="yes"/>
      <point x="723" y="935"/>
      <point x="809" y="827"/>
      <point x="809" y="580" type="curve" smooth="yes"/>
      <point x="809" y="0" type="line" smooth="yes"/>
      <point x="809" y="-260"/>
      <point x="797" y="-336"/>
      <point x="707" y="-336" type="curve" smooth="yes"/>
      <point x="652" y="-336"/>
      <point x="618" y="-307"/>
      <point x="618" y="-246" type="curve" smooth="yes"/>
      <point x="618" y="-235"/>
      <point x="619" y="-227"/>
      <point x="622" y="-208" type="curve"/>
      <point x="543" y="-208" type="line"/>
      <point x="540" y="-219"/>
      <point x="537" y="-232"/>
      <point x="537" y="-252" type="curve" smooth="yes"/>
      <point x="537" y="-363"/>
      <point x="619" y="-418"/>
    </contour>
  </outline>
</glyph>
<glyph name="florin" format="2">
  <advance width="1309"/>
  <unicode hex="0192"/>
  <note>
florin
</note>
  <outline>
    <contour>
      <point x="567" y="379" type="line"/>
      <point x="654" y="379" type="line"/>
      <point x="850" y="1133" type="line" smooth="yes"/>
      <point x="910" y="1364"/>
      <point x="933" y="1453"/>
      <point x="1034" y="1456" type="curve"/>
      <point x="1088" y="1449"/>
      <point x="1104" y="1427"/>
      <point x="1095" y="1381" type="curve"/>
      <point x="1162" y="1463" type="line"/>
      <point x="1132" y="1514"/>
      <point x="1105" y="1531"/>
      <point x="1036" y="1531" type="curve" smooth="yes"/>
      <point x="870" y="1531"/>
      <point x="819" y="1353"/>
      <point x="765" y="1145" type="curve" smooth="yes"/>
    </contour>
    <contour>
      <point x="273" y="-445" type="curve" smooth="yes"/>
      <point x="443" y="-445"/>
      <point x="494" y="-250"/>
      <point x="543" y="-58" type="curve" smooth="yes"/>
      <point x="699" y="552" type="line"/>
      <point x="612" y="552" type="line"/>
      <point x="458" y="-48" type="line" smooth="yes"/>
      <point x="399" y="-278"/>
      <point x="376" y="-367"/>
      <point x="274" y="-370" type="curve"/>
      <point x="222" y="-364"/>
      <point x="206" y="-342"/>
      <point x="211" y="-296" type="curve"/>
      <point x="147" y="-377" type="line"/>
      <point x="177" y="-429"/>
      <point x="204" y="-445"/>
    </contour>
    <contour>
      <point x="526" y="854" type="line"/>
      <point x="946" y="854" type="line"/>
      <point x="964" y="926" type="line"/>
      <point x="547" y="926" type="line"/>
    </contour>
  </outline>
</glyph>
<glyph name="acutecomb" format="2">
  <unicode hex="0301"/>
  <note>
acute
</note>
  <anchor x="246" y="949" name="_top"/>
  <anchor x="246" y="1331" name="top"/>
  <outline>
    <contour>
      <point x="113" y="1040" type="curve"/>
      <point x="138" y="1040" type="line"/>
      <point x="251" y="1137"/>
      <point x="333" y="1230"/>
      <point x="379" y="1291" type="curve"/>
      <point x="242" y="1291" type="line"/>
      <point x="211" y="1242"/>
      <point x="143" y="1147"/>
    </contour>
  </outline>
</glyph>
<glyph name="dotaccentcomb" format="2">
  <unicode hex="0307"/>
  <anchor x="129" y="949" name="_top"/>
  <anchor x="129" y="1276" name="top"/>
  <outline>
    <contour>
      <point x="129" y="1095" type="curve" smooth="yes"/>
      <point x="174" y="1095"/>
      <point x="206" y="1128"/>
      <point x="206" y="1175" type="curve" smooth="yes"/>
      <point x="206" y="1222"/>
      <point x="174" y="1256"/>
      <point x="129" y="1256" type="curve" smooth="yes"/>
      <point x="84" y="1256"/>
      <point x="52" y="1222"/>
      <point x="52" y="1175" type="curve" smooth="yes"/>
      <point x="52" y="1128"/>
      <point x="84" y="1095"/>
    </contour>
  </outline>
</glyph>
<glyph name="daggerdbl" format="2">
  <advance width="1092"/>
  <unicode hex="2021"/>
  <note>
daggerdbl
</note>
  <outline>
    <contour>
      <point x="546" y="-300" type="curve" smooth="yes"/>
      <point x="572" y="-300"/>
      <point x="591" y="-263"/>
      <point x="591" y="-213" type="curve" smooth="yes"/>
      <point x="591" y="-88"/>
      <point x="584" y="38"/>
      <point x="575" y="64" type="curve"/>
      <point x="599" y="55"/>
      <point x="716" y="48"/>
      <point x="869" y="48" type="curve" smooth="yes"/>
      <point x="919" y="48"/>
      <point x="956" y="61"/>
      <point x="956" y="78" type="curve" smooth="yes"/>
      <point x="956" y="95"/>
      <point x="919" y="108"/>
      <point x="869" y="108" type="curve" smooth="yes"/>
      <point x="723" y="108"/>
      <point x="594" y="98"/>
      <point x="574" y="91" type="curve"/>
      <point x="581" y="113"/>
      <point x="591" y="256"/>
      <point x="591" y="364" type="curve" smooth="yes"/>
      <point x="591" y="700" type="line" smooth="yes"/>
      <point x="591" y="808"/>
      <point x="581" y="951"/>
      <point x="574" y="973" type="curve"/>
      <point x="594" y="966"/>
      <point x="723" y="956"/>
      <point x="869" y="956" type="curve" smooth="yes"/>
      <point x="919" y="956"/>
      <point x="956" y="969"/>
      <point x="956" y="986" type="curve" smooth="yes"/>
      <point x="956" y="1003"/>
      <point x="919" y="1016"/>
      <point x="869" y="1016" type="curve" smooth="yes"/>
      <point x="716" y="1016"/>
      <point x="599" y="1009"/>
      <point x="575" y="1000" type="curve"/>
      <point x="584" y="1026"/>
      <point x="591" y="1152"/>
      <point x="591" y="1277" type="curve" smooth="yes"/>
      <point x="591" y="1327"/>
      <point x="572" y="1364"/>
      <point x="546" y="1364" type="curve" smooth="yes"/>
      <point x="520" y="1364"/>
      <point x="501" y="1327"/>
      <point x="501" y="1277" type="curve" smooth="yes"/>
      <point x="501" y="1152"/>
      <point x="508" y="1026"/>
      <point x="517" y="1000" type="curve"/>
      <point x="493" y="1009"/>
      <point x="376" y="1016"/>
      <point x="223" y="1016" type="curve" smooth="yes"/>
      <point x="173" y="1016"/>
      <point x="136" y="1003"/>
      <point x="136" y="986" type="curve" smooth="yes"/>
      <point x="136" y="969"/>
      <point x="173" y="956"/>
      <point x="223" y="956" type="curve" smooth="yes"/>
      <point x="369" y="956"/>
      <point x="498" y="966"/>
      <point x="518" y="973" type="curve"/>
      <point x="511" y="951"/>
      <point x="501" y="808"/>
      <point x="501" y="700" type="curve" smooth="yes"/>
      <point x="501" y="364" type="line" smooth="yes"/>
      <point x="501" y="256"/>
      <point x="511" y="113"/>
      <point x="518" y="91" type="curve"/>
      <point x="498" y="98"/>
      <point x="369" y="108"/>
      <point x="223" y="108" type="curve" smooth="yes"/>
      <point x="173" y="108"/>
      <point x="136" y="95"/>
      <point x="136" y="78" type="curve" smooth="yes"/>
      <point x="136" y="61"/>
      <point x="173" y="48"/>
      <point x="223" y="48" type="curve" smooth="yes"/>
      <point x="376" y="48"/>
      <point x="493" y="55"/>
      <point x="517" y="64" type="curve"/>
      <point x="508" y="38"/>
      <point x="501" y="-88"/>
      <point x="501" y="-213" type="curve" smooth="yes"/>
      <point x="501" y="-263"/>
      <point x="520" y="-300"/>
    </contour>
  </outline>
</glyph>
<glyph name="rupeeIndian" format="2">
  <advance width="1285"/>
  <unicode hex="20B9"/>
  <outline>
    <contour>
      <point x="420" y="633" type="line"/>
      <point x="506" y="633"/>
      <point x="630" y="618"/>
      <point x="686" y="578" type="curve" smooth="yes"/>
      <point x="755" y="529"/>
      <point x="771" y="511"/>
      <point x="835" y="221" type="curve" smooth="yes"/>
      <point x="851" y="147"/>
      <point x="867" y="74"/>
      <point x="883" y="0" type="curve"/>
      <point x="980" y="0" type="line"/>
      <point x="953" y="97"/>
      <point x="926" y="221"/>
      <point x="910" y="296" type="curve" smooth="yes"/>
      <point x="865" y="503"/>
      <point x="827" y="572"/>
      <point x="778" y="620" type="curve" smooth="yes"/>
      <point x="750" y="648"/>
      <point x="712" y="667"/>
      <point x="673" y="681" type="curve"/>
    </contour>
    <contour>
      <point x="155" y="710" type="line"/>
      <point x="155" y="633" type="line"/>
      <point x="436" y="633" type="line"/>
      <point x="543" y="633" type="line"/>
      <point x="787" y="683"/>
      <point x="922" y="793"/>
      <point x="922" y="1036" type="curve" smooth="yes"/>
      <point x="922" y="1316"/>
      <point x="728" y="1430"/>
      <point x="421" y="1430" type="curve" smooth="yes"/>
      <point x="155" y="1430" type="line"/>
      <point x="155" y="1353" type="line"/>
      <point x="376" y="1353" type="line" smooth="yes"/>
      <point x="696" y="1353"/>
      <point x="833" y="1271"/>
      <point x="833" y="1034" type="curve" smooth="yes"/>
      <point x="833" y="793"/>
      <point x="696" y="710"/>
      <point x="376" y="710" type="curve" smooth="yes"/>
    </contour>
    <contour>
      <point x="155" y="1353" type="line"/>
      <point x="1133" y="1353" type="line"/>
      <point x="1133" y="1430" type="line"/>
      <point x="155" y="1430" type="line"/>
    </contour>
    <contour>
      <point x="155" y="996" type="line"/>
      <point x="1133" y="996" type="line"/>
      <point x="1133" y="1073" type="line"/>
      <point x="155" y="1073" type="line"/>
    </contour>
  </outline>
</glyph>
<glyph name="product" format="2">
  <advance width="1465"/>
  <unicode hex="220F"/>
  <note>
product
</note>
  <outline>
    <contour>
      <point x="174" y="-371" type="line"/>
      <point x="262" y="-371" type="line"/>
      <point x="262" y="1223" type="line"/>
      <point x="1203" y="1223" type="line"/>
      <point x="1203" y="-371" type="line"/>
      <point x="1291" y="-371" type="line"/>
      <point x="1291" y="1315" type="line"/>
      <point x="174" y="1315" type="line"/>
    </contour>
  </outline>
</glyph>
<glyph name="radical" format="2">
  <advance width="1409"/>
  <unicode hex="221A"/>
  <note>
radical
</note>
  <guideline x="897" y="862" angle="249.8125"/>
  <outline>
    <contour>
      <point x="600" y="-43" type="line"/>
      <point x="643" y="-43" type="line"/>
      <point x="1134" y="1418" type="line"/>
      <point x="1272" y="1418" type="line"/>
      <point x="1272" y="1537" type="line"/>
      <point x="1092" y="1537" type="line"/>
      <point x="617" y="123" type="line"/>
      <point x="299" y="944" type="line"/>
      <point x="135" y="881" type="line"/>
      <point x="163" y="810" type="line"/>
      <point x="260" y="844" type="line"/>
    </contour>
  </outline>
</glyph>
<glyph name="currency_horz_stroke_long.case" format="2">
  <advance width="1962"/>
  <anchor x="981" y="0" name="_bottom"/>
  <anchor x="979" y="-318" name="bottom"/>
  <outline>
    <contour>
      <point x="146" y="695" type="line"/>
      <point x="1816" y="695" type="line"/>
      <point x="1816" y="772" type="line"/>
      <point x="146" y="772" type="line"/>
    </contour>
  </outline>
</glyph>
